<svg width="27" height="26" viewBox="0 0 27 26" fill="none" xmlns="http://www.w3.org/2000/svg">
<path fill-rule="evenodd" clip-rule="evenodd" d="M0.117307 0.385837C8.83604 0.376473 17.5548 0.385837 26.2735 0.413872C26.3028 0.441907 26.3321 0.469943 26.3614 0.497978C26.4005 0.797005 26.4005 1.09609 26.3614 1.39511C26.3126 1.44182 26.2637 1.48858 26.2148 1.53529C17.5352 1.57269 8.85557 1.57269 0.175953 1.53529C0.127101 1.48858 0.0781899 1.44182 0.0293377 1.39511C-0.00977923 1.09609 -0.00977923 0.797005 0.0293377 0.497978C0.0713869 0.467476 0.10071 0.430076 0.117307 0.385837Z" fill="#252A32"/>
<path fill-rule="evenodd" clip-rule="evenodd" d="M9.79371 2.12402H16.5967C16.6065 3.04005 16.5967 3.95586 16.5673 4.8715C16.4989 4.93693 16.4305 5.00231 16.3621 5.06775C15.3064 5.07711 14.2508 5.08642 13.1952 5.09578C12.0953 5.10447 11.0006 5.07644 9.911 5.01168C9.87429 4.96962 9.84497 4.92286 9.82304 4.8715C9.79371 3.95586 9.78392 3.04005 9.79371 2.12402Z" fill="#262B32"/>
<path fill-rule="evenodd" clip-rule="evenodd" d="M14.8375 7.95539C14.7649 8.05149 14.7258 8.16364 14.7202 8.29181C13.6797 8.3097 12.6436 8.29103 11.612 8.23574C11.3855 7.38823 11.1313 6.54717 10.8496 5.71255C12.4135 5.63781 13.9774 5.63781 15.5413 5.71255C15.2702 6.45039 15.0356 7.19798 14.8375 7.95539Z" fill="#242931"/>
<path fill-rule="evenodd" clip-rule="evenodd" d="M14.8374 7.95532C14.8271 8.08771 14.8076 8.21852 14.7787 8.34782C13.7017 8.38443 12.6461 8.34709 11.6118 8.23568C12.6434 8.29096 13.6795 8.30963 14.7201 8.29175C14.7256 8.16357 14.7647 8.05143 14.8374 7.95532Z" fill="#D0D1D3"/>
<path fill-rule="evenodd" clip-rule="evenodd" d="M14.4857 9.02075C14.077 8.94612 13.6469 8.90878 13.1955 8.90861C12.744 8.90878 12.3139 8.94612 11.9053 9.02075C11.8522 8.981 11.8327 8.92493 11.8466 8.85254H14.5443C14.5582 8.92493 14.5387 8.981 14.4857 9.02075Z" fill="#B4B5B8"/>
<path fill-rule="evenodd" clip-rule="evenodd" d="M14.4857 9.02083C14.2806 9.60947 14.0851 10.2076 13.8992 10.8151C13.8685 10.8539 13.8293 10.8819 13.7819 10.8992C13.3714 10.9366 12.9609 10.9366 12.5504 10.8992C12.5211 10.8712 12.4917 10.8431 12.4624 10.8151C12.2434 10.2257 12.0577 9.62769 11.9053 9.02083C12.3139 8.9462 12.744 8.90886 13.1955 8.90869C13.6469 8.90886 14.0771 8.9462 14.4857 9.02083Z" fill="#242931"/>
<path fill-rule="evenodd" clip-rule="evenodd" d="M25.6284 24.216C25.7144 24.1685 25.7633 24.0937 25.775 23.9917C25.8226 23.7568 25.8128 23.5325 25.7457 23.3188C25.5729 22.6398 25.1233 22.238 24.3968 22.1133C16.8315 22.0946 9.26615 22.0759 1.70081 22.0572C0.986501 21.8879 0.478216 21.486 0.176013 20.8517C0.0218322 20.3079 0.0218322 19.7659 0.176013 19.2257C0.491763 18.5414 1.03911 18.1396 1.8181 18.0201C9.38345 18.0015 16.9488 17.9827 24.5141 17.9641C25.4161 17.7185 25.8364 17.1485 25.775 16.2539C25.6084 15.646 25.2076 15.2628 24.5728 15.1044C20.7413 15.0858 16.9097 15.067 13.0781 15.0484C13.0293 15.0017 12.9804 14.9549 12.9315 14.9082C12.9022 13.787 12.8924 12.6655 12.9022 11.5439H13.4887C13.4789 12.46 13.4887 13.3758 13.518 14.2914C13.5399 14.3428 13.5693 14.3895 13.606 14.4316C17.2225 14.4503 20.839 14.469 24.4555 14.4877C26.0786 14.9094 26.6552 15.8906 26.1855 17.4314C25.8272 18.0723 25.2701 18.4554 24.5141 18.5808C16.9293 18.5995 9.34433 18.6182 1.75946 18.6369C0.627118 19.0918 0.324094 19.8488 0.850443 20.9078C1.07934 21.2088 1.38236 21.405 1.75946 21.4965C9.40473 21.4971 17.0483 21.5345 24.6901 21.6087C25.7368 21.8535 26.3037 22.489 26.3908 23.5151C26.35 24.5811 25.8026 25.2726 24.7487 25.5897C16.5383 25.6271 8.32782 25.6271 0.117367 25.5897C-0.0390424 25.4215 0.117367 25.0851 0.117367 25.0851C8.24964 25.0664 16.3819 25.0477 24.5141 25.029C25.013 24.9164 25.3844 24.6453 25.6284 24.216Z" fill="#272C34"/>
<path fill-rule="evenodd" clip-rule="evenodd" d="M0.175953 19.2256C0.0217724 19.7658 0.0217724 20.3078 0.175953 20.8516C0.100124 20.7764 0.0512713 20.6829 0.0293377 20.5713C-0.00977924 20.2162 -0.00977924 19.861 0.0293377 19.5059C0.0512713 19.3943 0.100124 19.3008 0.175953 19.2256Z" fill="#54575E"/>
<path fill-rule="evenodd" clip-rule="evenodd" d="M25.7457 23.3188C25.8129 23.5325 25.8227 23.7568 25.775 23.9917C25.7633 24.0937 25.7144 24.1685 25.6284 24.216C25.7272 23.9258 25.7662 23.6267 25.7457 23.3188Z" fill="#7B7E83"/>
</svg>
